/* XPM */
static char * close_pressed_xpm[] = {
"25 25 3 1",
" 	c None",
".	c #292929",
"+	c #E04613",
".........................",
".........................",
".........................",
".........................",
".........................",
".....++...........++.....",
".....+++.........+++.....",
"......+++.......+++......",
".......+++.....+++.......",
"........+++...+++........",
".........+++.+++.........",
"..........+++++..........",
"...........+++...........",
"..........+++++..........",
".........+++.+++.........",
"........+++...+++........",
".......+++.....+++.......",
"......+++.......+++......",
".....+++.........+++.....",
".....++...........++.....",
".........................",
".........................",
".........................",
".........................",
"........................."};
