/* XPM */
static char * titlebar_right_xpm[] = {
"3 30 3 1",
" 	c None",
".	c #DADADA",
"+	c #292929",
"...",
"++.",
"++.",
"++.",
"++.",
"++.",
"++.",
"++.",
"++.",
"++.",
"++.",
"++.",
"++.",
"++.",
"++.",
"++.",
"++.",
"++.",
"++.",
"++.",
"++.",
"++.",
"++.",
"++.",
"++.",
"++.",
"++.",
"++.",
"++.",
"++."};
